<?xml version="1.0" encoding="UTF-8"?>
<svg version="1.1" xmlns="http://www.w3.org/2000/svg" width="600" height="600">
<path d="M0 0 C0.67482422 0.30599121 1.34964844 0.61198242 2.04492188 0.92724609 C10.88205976 4.97313983 18.85516718 9.28172437 26 16 C26.6084375 16.5671875 27.216875 17.134375 27.84375 17.71875 C46.16969104 36.7110889 55.57688293 69.39621728 55.13671875 95.23046875 C54.98126119 98.37959472 54.63860938 101.47282912 54.2409668 104.59887695 C49.67710524 150.0756535 77.25523698 194.11851989 103 229 C133.6985927 270.59340483 165.7267207 322.80668385 158.63525391 376.77587891 C157.54983828 382.59283002 155.86882066 388.20599523 154.11328125 393.8515625 C153.31497636 396.44315118 153.31497636 396.44315118 153 400 C155.10387764 402.85393478 155.10387764 402.85393478 158 405 C161.36081567 409.43593806 162.04128874 414.15303315 163 419.5 C163.34839157 421.29958898 163.69735021 423.09906827 164.046875 424.8984375 C164.61209088 427.87956638 165.14270258 430.85795577 165.640625 433.8515625 C167.74201264 445.13978586 174.06221353 452.16128613 183.0078125 459.05859375 C187.28835867 461.8359194 191.81209166 464.04065236 196.46679688 466.12353516 C200.71773689 468.08350579 203.54037551 469.83470627 206 474 C206.96168728 479.25392389 206.68781824 484.29683103 204.6875 489.25 C194.72835765 499.44075031 181.19607107 505.89640404 169 513 C156.92566893 520.04372608 145.25749491 527.36716037 133.95214844 535.59472656 C132.08142556 536.941385 130.19160018 538.25348581 128.2890625 539.5546875 C122.21871296 543.73281858 116.69445576 548.07907709 111.375 553.1875 C99.16813452 564.84462301 86.76761421 569.5500679 70 569.375 C68.88882812 569.38660156 67.77765625 569.39820313 66.6328125 569.41015625 C54.95305492 569.36893358 45.7726443 567.01340631 37.375 558.5625 C32.6532279 553.01363256 30 545.28525759 30 538 C20.54221942 536.52847221 11.12267463 535.72750079 1.5625 535.3125 C0.59586426 535.26424072 -0.37077148 535.21598145 -1.36669922 535.16625977 C-9.76518953 534.85002939 -18.09385928 535.2151527 -26.4850769 535.58746338 C-35.39641002 535.9688959 -44.30499907 536.17732565 -53.22265625 536.31640625 C-54.2553832 536.33254817 -54.2553832 536.33254817 -55.30897331 536.34901619 C-59.51294071 536.41365185 -63.71696553 536.47360476 -67.92102051 536.53222656 C-71.55610558 536.58361464 -75.19113523 536.63867073 -78.82617188 536.69335938 C-85.88406614 536.79903322 -92.94201077 536.9008523 -100 537 C-99.98485352 538.09562256 -99.96970703 539.19124512 -99.95410156 540.32006836 C-100.05793729 548.64515308 -104.00606484 556.78314752 -109.6796875 562.7734375 C-118.13268399 570.81906066 -127.89918748 573.16427516 -139.3125 573.3125 C-140.01439453 573.34150391 -140.71628906 573.37050781 -141.43945312 573.40039062 C-155.4577573 573.55955041 -169.01501271 567.74105127 -181.8125 562.625 C-200.41741319 555.22529412 -218.87551958 549.52392378 -238.5 545.5 C-248.8734779 543.3729585 -259.14986754 541.13774182 -269.28125 538.03125 C-270.04127319 537.80449585 -270.80129639 537.5777417 -271.58435059 537.34411621 C-279.21219632 534.91047221 -285.70885814 531.09283002 -291 525 C-294.02669412 515.91991764 -292.0746308 506.39739618 -288 498 C-286.75735037 495.82175079 -285.46677314 493.72543938 -284.05078125 491.65625 C-280.13104218 485.47792522 -281.39327519 476.58347756 -282.7890625 469.75 C-284.21506331 463.43374255 -285.93131391 457.21311898 -287.75 451 C-289.44536782 444.82736247 -290.11791765 439.69316525 -287.625 433.6875 C-280.59261069 426.48767285 -268.66382551 425.39048288 -259.18945312 423.46484375 C-243.16881324 419.91776629 -234.62811221 409.15346768 -225.75268555 396.10351562 C-223.13582766 392.33039556 -220.4120154 389.47708036 -216.875 386.5 C-214.17494499 383.92717272 -213.10246672 382.73354683 -212.58203125 379.0078125 C-212.65511353 376.66376603 -212.77137011 374.32081983 -212.921875 371.98046875 C-213.8755817 323.38911245 -173.67457899 259.3081931 -143.64550781 223.37939453 C-131.32164795 208.55745497 -118.76231104 192.51160382 -118.84765625 172.3984375 C-118.84959488 171.65822357 -118.85153351 170.91800964 -118.85353088 170.15536499 C-118.93695255 161.28020426 -119.68465374 152.46374659 -120.4375 143.625 C-121.95178571 125.46077382 -123.18728703 107.35530097 -123.18530273 89.11962891 C-123.18750751 86.86732544 -123.20584494 84.61550038 -123.22460938 82.36328125 C-123.31556789 58.87897041 -120.68508818 32.23662963 -103.5 14.5625 C-76.45365694 -11.52116923 -33.04131846 -15.28034416 0 0 Z M-179 326 C-181.97968349 338.29353693 -183.14749814 349.41349168 -183 362 C-182.67 362 -182.34 362 -182 362 C-181.42520536 357.83808931 -180.85572462 353.67549528 -180.29101562 349.51220703 C-180.09844121 348.09794825 -179.90445216 346.68388131 -179.70898438 345.27001953 C-179.42720423 343.22998878 -179.15063012 341.18930718 -178.875 339.1484375 C-178.62363281 337.31031494 -178.62363281 337.31031494 -178.3671875 335.43505859 C-178.0273691 332.25603942 -177.93159628 329.19359852 -178 326 C-178.33 326 -178.66 326 -179 326 Z " fill="#EBEEF0" transform="translate(333,14)"/>
<path d="M0 0 C0.67482422 0.30599121 1.34964844 0.61198242 2.04492188 0.92724609 C10.88205976 4.97313983 18.85516718 9.28172437 26 16 C26.6084375 16.5671875 27.216875 17.134375 27.84375 17.71875 C46.16969104 36.7110889 55.57688293 69.39621728 55.13671875 95.23046875 C54.98126119 98.37959472 54.63860938 101.47282912 54.2409668 104.59887695 C49.67710524 150.0756535 77.25523698 194.11851989 103 229 C133.82105512 270.75932869 165.44851626 322.65572138 158.65136719 376.77587891 C157.78215682 381.63555507 156.42783848 386.28005091 155 391 C154.85433594 391.96421875 154.70867187 392.9284375 154.55859375 393.921875 C154.08992681 396.57343209 153.79904915 397.98784035 152 400 C148.56747097 401.19115577 145.21601929 401.78661026 141.6328125 402.37890625 C135.64560148 403.4025262 130.57366728 404.75632072 126.65332031 409.69726562 C124.70493014 412.45418999 122.86460978 415.27219438 121.04101562 418.11279297 C117.46880768 423.59651219 114.03393098 427.21768738 108 430 C107.01773438 430.49693359 107.01773438 430.49693359 106.015625 431.00390625 C99.7623879 433.79285 93.36822854 433.71250988 86.75 432.3125 C79.77874818 428.98531163 79.77874818 428.98531163 78 426 C77.65730097 422.69602986 77.75633315 419.54737914 77.90625 416.23046875 C78.10005593 409.55223947 76.46301562 405.05808437 72 400 C72 399.34 72 398.68 72 398 C79.65615952 391.93725439 87.50095492 390.64228419 97 390 C107.59999788 365.86743999 116.9919567 337.14764494 108.18359375 311.02734375 C100.44766622 291.24073044 86.35846047 278.50882254 69 267 C71.45370694 269.46680502 73.91537881 271.91905208 76.4296875 274.32421875 C90.7809414 288.19404081 100.79640383 305.35033348 101.4375 325.625 C101.26449905 345.61141523 93.84639203 365.69277313 81 381 C78.73634636 383.08943401 76.39875845 385.06785637 74 387 C74.02618408 386.00709961 74.05236816 385.01419922 74.0793457 383.99121094 C74.52518377 365.33794415 74.41598419 346.99716953 71.75 328.5 C71.64748932 327.7721228 71.54497864 327.04424561 71.43936157 326.29431152 C69.58057542 313.36627312 67.0662537 300.37190318 61.4375 288.5 C61.09509277 287.74887939 60.75268555 286.99775879 60.39990234 286.22387695 C58.56033991 282.22072431 56.64172038 278.26274671 54.66796875 274.32421875 C39.06645273 242.97075887 27.33923334 209.62029203 14.96484375 176.8984375 C14.67719147 176.13810715 14.38953918 175.37777679 14.09317017 174.59440613 C10.87056611 166.04785671 10.87056611 166.04785671 10.9375 161.65625 C10.94523437 160.82222656 10.95296875 159.98820313 10.9609375 159.12890625 C10.98697917 157.37630208 11.01302083 155.62369792 11.0390625 153.87109375 C11.04679687 153.03707031 11.05453125 152.20304688 11.0625 151.34375 C11.07990234 150.20196289 11.07990234 150.20196289 11.09765625 149.03710938 C11.08225149 146.79602345 11.08225149 146.79602345 10 144 C7.73774618 142.92745649 7.73774618 142.92745649 5 142 C2.99248185 141.01517978 0.99065541 140.01847486 -1 139 C-0.54109375 138.35675781 -0.0821875 137.71351563 0.390625 137.05078125 C8.29283328 125.41328544 11.46661495 114.0915993 10 100 C8.15621171 90.87924847 4.11484213 82.43419778 -2.99609375 76.26953125 C-9.21327892 72.19698977 -15.77559498 72.01740605 -23 73 C-29.10471342 74.79353807 -33.51845362 79.87715319 -37 85 C-43.90047589 98.55196555 -43.81851667 110.35377944 -41 125 C-41.84820312 124.7834375 -42.69640625 124.566875 -43.5703125 124.34375 C-52.32514333 122.26568026 -59.99202874 121.630372 -69 122 C-68.97381592 121.36610352 -68.94763184 120.73220703 -68.9206543 120.07910156 C-67.72572421 101.12407803 -67.72572421 101.12407803 -76.0078125 84.76953125 C-80.73294583 80.4018342 -84.32311442 78.59721985 -90.94921875 78.73046875 C-96.03913707 79.39942944 -99.10917848 82.89821479 -102.1875 86.6875 C-108.62714494 95.94977147 -109.10567871 106.01981881 -108 117 C-106.41256758 125.43043206 -103.24180399 132.23807285 -98 139 C-98.83144531 139.66386719 -99.66289062 140.32773438 -100.51953125 141.01171875 C-101.61751433 141.90324347 -102.71515244 142.79519316 -103.8125 143.6875 C-104.35970703 144.12255859 -104.90691406 144.55761719 -105.47070312 145.00585938 C-109.48337461 148.28895423 -112.45208703 151.20107792 -113.46875 156.39453125 C-113.55187667 162.82645697 -112.28955437 167.12298728 -108 172 C-106.91270952 172.79446049 -105.80876902 173.56676289 -104.6875 174.3125 C-101.67404215 177.32595785 -101.59883894 177.72243392 -101.5625 181.75 C-101.68629137 183.83475918 -101.83519158 185.91808182 -102 188 C-102.05239374 189.3578712 -102.09893982 190.71597663 -102.140625 192.07421875 C-103.2851916 224.31527477 -120.54431737 257.31478541 -140.49609375 282.07421875 C-147.69383789 291.29107033 -151.69149187 302.24470532 -156 313 C-156.40347656 313.9796875 -156.80695313 314.959375 -157.22265625 315.96875 C-163.35181045 331.65144414 -165.94765574 348.38101719 -168 365 C-170 364 -170 364 -171.10546875 362.109375 C-172.43264453 357.49613517 -172.33935478 353.02781572 -172.3125 348.25 C-172.30512817 346.70844238 -172.30512817 346.70844238 -172.29760742 345.13574219 C-172.16123989 336.15366751 -171.08397796 327.72353576 -169 319 C-168.81775879 318.23204102 -168.63551758 317.46408203 -168.44775391 316.67285156 C-165.84696466 305.92639907 -162.66381537 295.43018078 -159 285 C-161.07456257 288.88952067 -163.13229971 292.78771864 -165.1875 296.6875 C-165.76564453 297.77095703 -166.34378906 298.85441406 -166.93945312 299.97070312 C-172.22289629 310.03014012 -176.58296955 320.24884401 -179.25 331.3125 C-179.56453125 332.58738281 -179.8790625 333.86226563 -180.203125 335.17578125 C-182.72711077 347.28843845 -184.84542111 363.72408239 -178.89379883 375.11767578 C-174.70172577 381.45530977 -169.72960021 386.69346321 -164.3125 392 C-163.41909912 392.88357178 -162.52569824 393.76714355 -161.60522461 394.67749023 C-156.446297 399.73597107 -151.26119905 404.57628376 -145.5546875 409.01171875 C-142.51871067 411.37458145 -139.60671607 413.87114246 -136.6875 416.375 C-131.59346683 420.71734248 -126.38450926 424.88897767 -121.10595703 429.00415039 C-116.48425424 432.60866418 -111.91789653 436.27361229 -107.40625 440.015625 C-105.92525768 441.23696282 -104.42822208 442.43950094 -102.90625 443.609375 C-97.88895779 447.56368158 -94.62015982 451.84915756 -93.65625 458.30078125 C-93.45771796 463.22272133 -94.12168527 466.87441555 -97 471 C-101.50306243 474.64533625 -106.69209374 476.78247472 -112 479 C-101.23925835 493.63871776 -81.16821041 500.67712057 -64 504 C-28.47545392 509.40982935 5.31618173 496.43135927 33.796875 475.58203125 C36 474 36 474 37 474 C36.48906979 480.33553455 35.62354872 486.55041199 34.5625 492.8125 C34.43012939 493.60100342 34.29775879 494.38950684 34.16137695 495.2019043 C33.59577188 498.55372762 33.01855329 501.90065011 32.39453125 505.2421875 C30.48586327 516.06275637 30.34552887 527.03999275 30 538 C29.14664062 537.86722656 28.29328125 537.73445312 27.4140625 537.59765625 C18.80967273 536.38239708 10.2443516 535.68937337 1.5625 535.3125 C0.59586426 535.26424072 -0.37077148 535.21598145 -1.36669922 535.16625977 C-9.76518953 534.85002939 -18.09385928 535.2151527 -26.4850769 535.58746338 C-35.39641002 535.9688959 -44.30499907 536.17732565 -53.22265625 536.31640625 C-54.2553832 536.33254817 -54.2553832 536.33254817 -55.30897331 536.34901619 C-59.51294071 536.41365185 -63.71696553 536.47360476 -67.92102051 536.53222656 C-71.55610558 536.58361464 -75.19113523 536.63867073 -78.82617188 536.69335938 C-85.88406614 536.79903322 -92.94201077 536.9008523 -100 537 C-99.98485352 538.09562256 -99.96970703 539.19124512 -99.95410156 540.32006836 C-100.05793729 548.64515308 -104.00606484 556.78314752 -109.6796875 562.7734375 C-118.13268399 570.81906066 -127.89918748 573.16427516 -139.3125 573.3125 C-140.01439453 573.34150391 -140.71628906 573.37050781 -141.43945312 573.40039062 C-155.4577573 573.55955041 -169.01501271 567.74105127 -181.8125 562.625 C-200.41741319 555.22529412 -218.87551958 549.52392378 -238.5 545.5 C-248.8734779 543.3729585 -259.14986754 541.13774182 -269.28125 538.03125 C-270.04127319 537.80449585 -270.80129639 537.5777417 -271.58435059 537.34411621 C-279.21219632 534.91047221 -285.70885814 531.09283002 -291 525 C-294.02669412 515.91991764 -292.0746308 506.39739618 -288 498 C-286.75735037 495.82175079 -285.46677314 493.72543938 -284.05078125 491.65625 C-280.13104218 485.47792522 -281.39327519 476.58347756 -282.7890625 469.75 C-284.21506331 463.43374255 -285.93131391 457.21311898 -287.75 451 C-289.44536782 444.82736247 -290.11791765 439.69316525 -287.625 433.6875 C-280.59261069 426.48767285 -268.66382551 425.39048288 -259.18945312 423.46484375 C-243.16881324 419.91776629 -234.62811221 409.15346768 -225.75268555 396.10351562 C-223.13582766 392.33039556 -220.4120154 389.47708036 -216.875 386.5 C-214.17494499 383.92717272 -213.10246672 382.73354683 -212.58203125 379.0078125 C-212.65511353 376.66376603 -212.77137011 374.32081983 -212.921875 371.98046875 C-213.8755817 323.38911245 -173.67457899 259.3081931 -143.64550781 223.37939453 C-131.32164795 208.55745497 -118.76231104 192.51160382 -118.84765625 172.3984375 C-118.84959488 171.65822357 -118.85153351 170.91800964 -118.85353088 170.15536499 C-118.93695255 161.28020426 -119.68465374 152.46374659 -120.4375 143.625 C-121.95178571 125.46077382 -123.18728703 107.35530097 -123.18530273 89.11962891 C-123.18750751 86.86732544 -123.20584494 84.61550038 -123.22460938 82.36328125 C-123.31556789 58.87897041 -120.68508818 32.23662963 -103.5 14.5625 C-76.45365694 -11.52116923 -33.04131846 -15.28034416 0 0 Z " fill="#263238" transform="translate(333,14)"/>
<path d="M0 0 C17.30703605 12.69886182 28.49951912 31.94981533 39.59179688 49.88525391 C41.03016538 52.19800911 42.48730004 54.49753447 43.953125 56.79296875 C48.97633086 64.6653835 53.87823588 72.59057376 58.63745117 80.62597656 C64.94199909 91.26655027 71.55178795 101.47966794 78.80810547 111.48974609 C87.90986432 124.261969 91.25367797 133.26489823 91.375 148.875 C91.40400391 150.09574219 91.43300781 151.31648437 91.46289062 152.57421875 C91.54055488 163.74592256 89.26242861 173.70402886 81.3828125 182.0234375 C72.92981601 190.06906066 63.16331252 192.41427516 51.75 192.5625 C51.04810547 192.59150391 50.34621094 192.62050781 49.62304688 192.65039062 C35.6047427 192.80955041 22.04748729 186.99105127 9.25 181.875 C-9.35491319 174.47529412 -27.81301958 168.77392378 -47.4375 164.75 C-57.8109779 162.6229585 -68.08736754 160.38774182 -78.21875 157.28125 C-78.97877319 157.05449585 -79.73879639 156.8277417 -80.52185059 156.59411621 C-88.14969632 154.16047221 -94.64635814 150.34283002 -99.9375 144.25 C-102.96419412 135.16991764 -101.0121308 125.64739618 -96.9375 117.25 C-95.69485037 115.07175079 -94.40427314 112.97543938 -92.98828125 110.90625 C-89.06854218 104.72792522 -90.33077519 95.83347756 -91.7265625 89 C-93.15256331 82.68374255 -94.86881391 76.46311898 -96.6875 70.25 C-98.38286782 64.07736247 -99.05541765 58.94316525 -96.5625 52.9375 C-89.53011069 45.73767285 -77.60132551 44.64048288 -68.12695312 42.71484375 C-52.84365593 39.33101893 -44.58718178 29.61349814 -35.9375 17.1875 C-27.91837025 5.69372412 -15.42600654 -8.61285365 0 0 Z " fill="#FEC007" transform="translate(141.9375,394.75)"/>
<path d="M0 0 C6.87475515 2.72376995 12.77211673 7.24424431 16 14 C17.00167858 18.16133584 17.12272163 22.20198541 16.83203125 26.4609375 C16.46094184 30.79618796 16.46094184 30.79618796 18.15625 34.63671875 C21.2079674 37.35368144 23.97370316 38.72547976 28 39 C28.69738281 39.07347656 29.39476562 39.14695312 30.11328125 39.22265625 C38.44108825 39.74065381 45.63475104 36.88995649 52.53125 32.32421875 C55.77090344 29.27422856 57.83948589 25.81471863 60.1875 22.0625 C64.52385443 15.44874772 68.20372501 11.34424076 76 9 C77.19625 8.566875 78.3925 8.13375 79.625 7.6875 C83.7659293 6.84397736 86.77320082 6.52278074 91 7 C97.77871636 12.27233495 99.55282627 18.42875861 101 26.5 C101.34839157 28.29958898 101.69735021 30.09906827 102.046875 31.8984375 C102.61209088 34.87956638 103.14270258 37.85795577 103.640625 40.8515625 C105.74201264 52.13978586 112.06221353 59.16128613 121.0078125 66.05859375 C125.28835867 68.8359194 129.81209166 71.04065236 134.46679688 73.12353516 C138.71773689 75.08350579 141.54037551 76.83470627 144 81 C144.96168728 86.25392389 144.68781824 91.29683103 142.6875 96.25 C132.72835765 106.44075031 119.19607107 112.89640404 107 120 C94.92566893 127.04372608 83.25749491 134.36716037 71.95214844 142.59472656 C70.08142556 143.941385 68.19160018 145.25348581 66.2890625 146.5546875 C60.21871296 150.73281858 54.69445576 155.07907709 49.375 160.1875 C37.16813452 171.84462301 24.76761421 176.5500679 8 176.375 C6.88882813 176.38660156 5.77765625 176.39820313 4.6328125 176.41015625 C-7.04694508 176.36893358 -16.2273557 174.01340631 -24.625 165.5625 C-34.46739702 153.49410631 -32.99458317 136.69330864 -32 122 C-31.47927164 117.63807189 -30.76903067 113.32444134 -30 109 C-29.80196777 107.87722656 -29.60393555 106.75445313 -29.39990234 105.59765625 C-28.56350605 100.90274665 -27.7238233 96.20864583 -26.85546875 91.51953125 C-23.42248883 72.20638656 -22.6469854 52.98076455 -22.69458008 33.3996582 C-22.71413482 12.24321048 -22.71413482 12.24321048 -17 5 C-11.67468332 -0.07762753 -7.21376348 -1.03773413 0 0 Z " fill="#FEC007" transform="translate(395,407)"/>
<path d="M0 0 C7.98383731 5.22471706 12.95447459 13.95701501 15.5625 22.95703125 C18.04015528 35.76341195 16.24379813 48.43075559 9 59.375 C8.06651882 60.64878825 7.12991839 61.92030973 6.1875 63.1875 C5.8575 63.8475 5.5275 64.5075 5.1875 65.1875 C5.88617188 65.51363281 6.58484375 65.83976562 7.3046875 66.17578125 C8.21476562 66.61277344 9.12484375 67.04976563 10.0625 67.5 C10.96742188 67.92925781 11.87234375 68.35851562 12.8046875 68.80078125 C15.1875 70.1875 15.1875 70.1875 17.1875 73.1875 C18.20015855 81.82797616 17.46193798 90.97750832 12 98 C5.266793 103.23693877 -2.25359579 107.10021528 -9.8125 111 C-10.81909668 111.52190918 -11.82569336 112.04381836 -12.86279297 112.58154297 C-18.8717873 115.68984142 -24.89246712 118.77484214 -30.9375 121.8125 C-31.56914062 122.13065674 -32.20078125 122.44881348 -32.8515625 122.77661133 C-38.02508466 125.35415423 -42.23763987 127.43834858 -48.0859375 127.453125 C-49.0759375 127.45570313 -50.0659375 127.45828125 -51.0859375 127.4609375 C-52.10945313 127.45320312 -53.13296875 127.44546875 -54.1875 127.4375 C-55.20328125 127.44523438 -56.2190625 127.45296875 -57.265625 127.4609375 C-65.44759682 127.43968563 -71.63395009 126.91252079 -77.75 121 C-78.6059375 120.19175781 -79.461875 119.38351563 -80.34375 118.55078125 C-81.1584375 117.77089844 -81.973125 116.99101562 -82.8125 116.1875 C-84.11652581 115.01136903 -85.42842575 113.84387747 -86.75 112.6875 C-87.70132813 111.85412109 -87.70132813 111.85412109 -88.671875 111.00390625 C-91.24006819 108.82469122 -93.87096846 106.73033408 -96.5 104.625 C-102.04861153 100.10618618 -107.90736914 95.30497063 -109.21875 87.890625 C-109.44277623 82.02860527 -108.56289985 78.57616025 -104.74609375 74.08203125 C-101.36397124 70.76823445 -97.66667928 67.92824971 -93.8125 65.1875 C-94.28300781 64.52105469 -94.75351563 63.85460937 -95.23828125 63.16796875 C-103.60602978 50.780929 -106.02607767 37.65912262 -103.19140625 22.96875 C-100.90554057 15.73525505 -96.3736512 8.9738842 -89.8046875 4.9609375 C-85.38484806 3.24499984 -81.12439716 3.75912542 -76.75 5.1875 C-69.67552273 10.00416537 -64.49573682 16.72061601 -62.8125 25.1875 C-61.59749915 41.54249745 -61.59749915 41.54249745 -63.8125 48.1875 C-63.1525 47.8575 -62.4925 47.5275 -61.8125 47.1875 C-53.09764784 46.43845486 -45.19824332 47.91523407 -36.8125 50.1875 C-37.0290625 49.17042969 -37.0290625 49.17042969 -37.25 48.1328125 C-39.91540082 34.76878896 -39.50600201 22.20944327 -32.26171875 10.22265625 C-24.58662203 -0.55557931 -12.86759232 -6.14338175 0 0 Z " fill="#FDBF08" transform="translate(327.8125,87.8125)"/>
<path d="M0 0 C7.98383731 5.22471706 12.95447459 13.95701501 15.5625 22.95703125 C18.03971351 35.76112858 16.15067637 48.29400613 9.1875 59.375 C7.19645597 62.29123025 5.61676045 64.13561692 2.1875 65.1875 C-0.828125 64.7265625 -0.828125 64.7265625 -4.0625 63.8125 C-5.14015625 63.51601562 -6.2178125 63.21953125 -7.328125 62.9140625 C-8.14796875 62.67429687 -8.9678125 62.43453125 -9.8125 62.1875 C-8.8125 60.1875 -8.8125 60.1875 -6.5 58.875 C-2.38384435 56.29043715 -0.36238212 53.56220531 1.4375 49.0625 C2.89608674 41.5264685 3.32988392 34.6645315 -0.59765625 27.84375 C-2.82539827 24.80657116 -5.47650842 22.85549579 -8.8125 21.1875 C-13.63803712 20.5119248 -16.89872615 20.63578749 -21.125 23.1875 C-25.88776908 27.93700232 -28.03711288 32.90457559 -28.1875 39.625 C-28.00406989 44.67638302 -27.09290493 49.30595622 -25.8125 54.1875 C-29.51232262 53.77100965 -32.58395406 53.08511557 -35.8125 51.1875 C-40.78655392 41.77909888 -39.50585395 29.94856317 -36.78515625 20.078125 C-33.78412246 11.15939003 -28.71355328 4.80494409 -21.1875 -0.75 C-14.30211217 -2.9176221 -6.61600103 -3.15868105 0 0 Z " fill="#E7EAEC" transform="translate(327.8125,87.8125)"/>
<path d="M0 0 C1.28390625 0.00966797 1.28390625 0.00966797 2.59375 0.01953125 C8.60551461 0.26398553 13.83108709 1.75894779 19.4375 3.8125 C20.12416748 4.06080566 20.81083496 4.30911133 21.51831055 4.56494141 C26.48046608 6.48953006 29.72217057 8.38458652 32.0859375 13.22265625 C31.9441672 17.80441459 29.27167282 20.82548728 26.625 24.4375 C25.79887207 25.5814624 25.79887207 25.5814624 24.95605469 26.74853516 C20.97123455 32.08976679 17.16085492 36.2154328 11 39 C10.01966797 39.495 10.01966797 39.495 9.01953125 40 C2.76753232 42.79530491 -3.63117604 42.71263584 -10.25 41.3125 C-17.22125182 37.98531163 -17.22125182 37.98531163 -19 35 C-19.34269903 31.69602986 -19.24366685 28.54737914 -19.09375 25.23046875 C-18.89994407 18.55223947 -20.53698438 14.05808437 -25 9 C-25 8.34 -25 7.68 -25 7 C-17.13651586 0.77307855 -9.76549355 -0.38064424 0 0 Z " fill="#465B63" transform="translate(430,405)"/>
<path d="M0 0 C7.08105214 4.82114189 12.24163023 11.53080605 13.9375 20 C15.43691321 38.3534313 15.43691321 38.3534313 11.9375 44 C9.9921875 44.828125 9.9921875 44.828125 7.8125 45.25 C6.53375 45.4975 5.255 45.745 3.9375 46 C4.00710937 44.44152344 4.00710937 44.44152344 4.078125 42.8515625 C4.3778271 33.28406104 4.38660347 24.7913422 -2.5 17.375 C-5.41644454 15.81007854 -6.81597341 15.33404583 -10.0625 16 C-12.94998669 18.30998935 -14.71366915 20.57871661 -16.0625 24 C-16.94936839 32.85837151 -16.45753567 40.16306893 -12.0625 48 C-11.7325 48.99 -11.4025 49.98 -11.0625 51 C-9.5775 51.495 -9.5775 51.495 -8.0625 52 C-10.71904657 55.73884332 -12.64360387 57.64978174 -17.0625 59 C-25.83709194 49.31870022 -27.98778001 37.72453389 -27.4375 25.0234375 C-26.6877578 15.02843683 -22.5342534 7.63993711 -15.0625 1 C-10.20257146 -1.96890576 -5.25516255 -1.71597145 0 0 Z " fill="#E7EAEC" transform="translate(251.0625,93)"/>
<path d="M0 0 C6.14376713 3.12984363 9.79067855 7.5237487 12 14 C12.89148556 21.64130479 12.24254203 29.45661515 7.67578125 35.85546875 C4.38553931 39.49114292 2.03057108 40.71306209 -3 41 C-6.32421875 39.99609375 -6.32421875 39.99609375 -9.6875 38.4375 C-10.80511719 37.94121094 -11.92273438 37.44492188 -13.07421875 36.93359375 C-17.07522686 34.28940281 -18.2151487 31.40504142 -19.66796875 26.953125 C-20.80687541 20.25367406 -20.83404048 13.7515634 -17.3203125 7.79296875 C-12.64044734 1.43776725 -8.06850511 -1.72265529 0 0 Z " fill="#242423" transform="translate(319,108)"/>
<path d="M0 0 C-0.34453104 2.62069514 -0.70395144 3.74338003 -2.73046875 5.5 C-16.95476501 14.18383111 -31.64508818 22.48295346 -47 29 C-47.81339844 29.35835937 -48.62679687 29.71671875 -49.46484375 30.0859375 C-59.99032574 33.8809495 -77.16489026 34.40191277 -87.4375 29.875 C-89.86328125 28.4765625 -89.86328125 28.4765625 -92 27 C-92.69480469 26.55398437 -93.38960937 26.10796875 -94.10546875 25.6484375 C-99.61508844 21.83326564 -104.62475927 17.06393603 -109 12 C-109 11.34 -109 10.68 -109 10 C-105.22494981 10.58341685 -103.32159901 12.24818221 -100.5 14.75 C-88.2428704 24.89445942 -74.31159563 26.39521549 -59 25 C-42.40820378 22.08897149 -26.12225233 11.45015796 -12 2.75 C-7.70708619 0.15793362 -4.97322897 -0.79119552 0 0 Z " fill="#684B03" transform="translate(333,162)"/>
<path d="M0 0 C4.45467543 1.22887598 6.32532696 3.1672116 8.625 7 C12.18226388 13.86919922 12.82058453 21.35579022 11.625 29 C9.19652805 32.15756172 6.36662524 33.90149252 2.875 35.75 C2.07578125 36.17796875 1.2765625 36.6059375 0.453125 37.046875 C-0.15015625 37.36140625 -0.7534375 37.6759375 -1.375 38 C-7.1112192 33.06047791 -9.96109128 27.93004241 -10.76171875 20.328125 C-10.96819362 13.12286404 -11.01458759 7.70006476 -6.375 2 C-3.375 0 -3.375 0 0 0 Z " fill="#242424" transform="translate(244.375,108)"/>
<path d="M0 0 C3.66075376 -0.3327958 5.39500988 -0.46170299 8.375 1.8125 C10 4 10 4 10 7 C6.00118212 6.38479725 3.19641774 4.39731331 0 2 C0 1.34 0 0.68 0 0 Z " fill="#6F5003" transform="translate(282,147)"/>
<path d="M0 0 C2.625 0.375 2.625 0.375 5 1 C5 1.66 5 2.32 5 3 C2.1875 5.1875 2.1875 5.1875 -1 7 C-1.99 6.67 -2.98 6.34 -4 6 C-2.84826645 3.53199953 -1.95216435 1.95216435 0 0 Z " fill="#6D4F03" transform="translate(260,146)"/>
</svg>
